<svg xmlns="http://www.w3.org/2000/svg" fill-rule="evenodd" clip-rule="evenodd">
<defs>
	<style>:root svg:not(:target) {display: none;}</style>
</defs>


<svg id="burger" viewBox="0 0 8 8" fill="none" stroke="#fff" stroke-width="0.7" stroke-linecap="square">
	<path d="M1 2H7M1 4H7M1 6H7"/>
</svg>

<svg id="arrow-link" viewBox="0 0 8 8" fill="none" stroke="#000" stroke-width="0.7">
	<path d="M4.5 1H7V3.5 M7 1L3.5 4.5 M3.5 1.5H1L1 7L6.5 7V4.5"/>

	<!--<path id="var-2" d="M4.5 1H7V3.5 M7 1L3.5 4.5 M3.5 1H1L1 7L7 7V4.5"/>-->
</svg>

<svg id="arrow" viewBox="0 0 8 8" fill="none" stroke="currentcolor" stroke-width="1">
	<path d="M1 4H6 M4 2L6 4L4 6"/><!-- (→) -->

	<!--<path d="M4 6V1 M6 4L4 6L2 4"/> (↓)
	<path d="M2 4H7 M4 2L2 4L4 6"/> (←)
	<path d="M4 2V7 M2 4L4 2L6 4"/> (↑) -->
</svg>

<svg id="arrow-simple" viewBox="0 0 8 8" fill="none" stroke="#166ee9" stroke-width="1">
	<path d="M3 1L6 4L3 7"/>

	<!--<path id="down" d="M1 3L4 6L7 3"/>
	<path id="left" d="M5 1L2 4L5 7"/>
	<path id="up" d="M1 5L4 2L7 5"/>-->
</svg>

<svg id="cross" viewBox="0 0 8 8" fill="none" stroke="#fff" stroke-width="1">
	<path d="M1 1L7 7M7 1L1 7"/>
</svg>

<svg id="eye" viewBox="0 0 20 14" fill="none">
<path d="M13.0001 7.00016C13.0001 7.79585 12.6841 8.55896 12.1214 9.12159C11.5588 9.68423 10.7957 10.0003 9.99998 10.0003C9.20429 10.0003 8.44118 9.68423 7.87854 9.12159C7.3159 8.55896 6.99982 7.79585 6.99982 7.00016C6.99982 6.20447 7.3159 5.44137 7.87854 4.87873C8.44118 4.31609 9.20429 4 9.99998 4C10.7957 4 11.5588 4.31609 12.1214 4.87873C12.6841 5.44137 13.0001 6.20447 13.0001 7.00016Z" fill="black"/>
<path d="M19.8945 6.55335C17.7364 2.23612 13.9042 0 10 0C6.09679 0 2.26359 2.23612 0.105472 6.55335C0.0361093 6.69216 0 6.8452 0 7.00037C0 7.15555 0.0361093 7.30859 0.105472 7.4474C2.26359 11.7646 6.09579 14.0007 10 14.0007C13.9032 14.0007 17.7364 11.7646 19.8945 7.4474C19.9639 7.30859 20 7.15555 20 7.00037C20 6.8452 19.9639 6.69216 19.8945 6.55335ZM10 12.0006C7.03084 12.0006 3.99768 10.3806 2.12958 7.00037C3.99768 3.62019 7.02984 2.00011 10 2.00011C12.9692 2.00011 16.0023 3.62019 17.8704 7.00037C16.0023 10.3806 12.9692 12.0006 10 12.0006Z" fill="black"/>
</svg>


</svg>
